<mxfile host="app.diagrams.net" agent="Mozilla/5.0 (Windows NT 10.0; Win64; x64) AppleWebKit/537.36 (KHTML, like Gecko) Chrome/128.0.0.0 Safari/537.36" version="24.7.8">
  <diagram name="Página-1" id="Yiwx2h5WfTKuhSAunhIm">
    <mxGraphModel dx="1050" dy="565" grid="1" gridSize="10" guides="1" tooltips="1" connect="1" arrows="1" fold="1" page="1" pageScale="1" pageWidth="827" pageHeight="1169" math="0" shadow="0">
      <root>
        <mxCell id="0" />
        <mxCell id="1" parent="0" />
        <mxCell id="4CBDETchsE6YsyWJ3VwL-1" style="edgeStyle=orthogonalEdgeStyle;rounded=0;orthogonalLoop=1;jettySize=auto;html=1;entryX=1;entryY=0.5;entryDx=0;entryDy=0;" edge="1" parent="1" source="4CBDETchsE6YsyWJ3VwL-4" target="4CBDETchsE6YsyWJ3VwL-5">
          <mxGeometry relative="1" as="geometry" />
        </mxCell>
        <mxCell id="4CBDETchsE6YsyWJ3VwL-2" style="edgeStyle=orthogonalEdgeStyle;rounded=0;orthogonalLoop=1;jettySize=auto;html=1;entryX=1;entryY=0.5;entryDx=0;entryDy=0;" edge="1" parent="1" source="4CBDETchsE6YsyWJ3VwL-4" target="4CBDETchsE6YsyWJ3VwL-6">
          <mxGeometry relative="1" as="geometry" />
        </mxCell>
        <mxCell id="4CBDETchsE6YsyWJ3VwL-3" style="edgeStyle=orthogonalEdgeStyle;rounded=0;orthogonalLoop=1;jettySize=auto;html=1;entryX=1;entryY=0.5;entryDx=0;entryDy=0;" edge="1" parent="1" source="4CBDETchsE6YsyWJ3VwL-4" target="4CBDETchsE6YsyWJ3VwL-7">
          <mxGeometry relative="1" as="geometry" />
        </mxCell>
        <mxCell id="4CBDETchsE6YsyWJ3VwL-19" style="edgeStyle=orthogonalEdgeStyle;rounded=0;orthogonalLoop=1;jettySize=auto;html=1;entryX=1;entryY=0.5;entryDx=0;entryDy=0;" edge="1" parent="1" source="4CBDETchsE6YsyWJ3VwL-4" target="4CBDETchsE6YsyWJ3VwL-18">
          <mxGeometry relative="1" as="geometry" />
        </mxCell>
        <mxCell id="4CBDETchsE6YsyWJ3VwL-4" value="filme" style="rounded=0;whiteSpace=wrap;html=1;" vertex="1" parent="1">
          <mxGeometry x="340" y="265" width="120" height="60" as="geometry" />
        </mxCell>
        <mxCell id="4CBDETchsE6YsyWJ3VwL-5" value="titulo" style="ellipse;whiteSpace=wrap;html=1;" vertex="1" parent="1">
          <mxGeometry x="190" y="200" width="100" height="50" as="geometry" />
        </mxCell>
        <mxCell id="4CBDETchsE6YsyWJ3VwL-6" value="duração" style="ellipse;whiteSpace=wrap;html=1;" vertex="1" parent="1">
          <mxGeometry x="190" y="270" width="100" height="50" as="geometry" />
        </mxCell>
        <mxCell id="4CBDETchsE6YsyWJ3VwL-7" value="idioma" style="ellipse;whiteSpace=wrap;html=1;" vertex="1" parent="1">
          <mxGeometry x="190" y="340" width="100" height="50" as="geometry" />
        </mxCell>
        <mxCell id="4CBDETchsE6YsyWJ3VwL-8" value="n" style="edgeStyle=orthogonalEdgeStyle;rounded=0;orthogonalLoop=1;jettySize=auto;html=1;" edge="1" parent="1" source="4CBDETchsE6YsyWJ3VwL-9" target="4CBDETchsE6YsyWJ3VwL-4">
          <mxGeometry relative="1" as="geometry" />
        </mxCell>
        <mxCell id="4CBDETchsE6YsyWJ3VwL-9" value="faz" style="rhombus;whiteSpace=wrap;html=1;" vertex="1" parent="1">
          <mxGeometry x="540" y="255" width="80" height="80" as="geometry" />
        </mxCell>
        <mxCell id="4CBDETchsE6YsyWJ3VwL-10" style="edgeStyle=orthogonalEdgeStyle;rounded=0;orthogonalLoop=1;jettySize=auto;html=1;entryX=0;entryY=0.5;entryDx=0;entryDy=0;" edge="1" parent="1" source="4CBDETchsE6YsyWJ3VwL-14" target="4CBDETchsE6YsyWJ3VwL-15">
          <mxGeometry relative="1" as="geometry" />
        </mxCell>
        <mxCell id="4CBDETchsE6YsyWJ3VwL-11" style="edgeStyle=orthogonalEdgeStyle;rounded=0;orthogonalLoop=1;jettySize=auto;html=1;entryX=0;entryY=0.5;entryDx=0;entryDy=0;" edge="1" parent="1" source="4CBDETchsE6YsyWJ3VwL-14" target="4CBDETchsE6YsyWJ3VwL-16">
          <mxGeometry relative="1" as="geometry" />
        </mxCell>
        <mxCell id="4CBDETchsE6YsyWJ3VwL-12" style="edgeStyle=orthogonalEdgeStyle;rounded=0;orthogonalLoop=1;jettySize=auto;html=1;entryX=0;entryY=0.5;entryDx=0;entryDy=0;" edge="1" parent="1" source="4CBDETchsE6YsyWJ3VwL-14" target="4CBDETchsE6YsyWJ3VwL-17">
          <mxGeometry relative="1" as="geometry" />
        </mxCell>
        <mxCell id="4CBDETchsE6YsyWJ3VwL-13" value="n" style="edgeStyle=orthogonalEdgeStyle;rounded=0;orthogonalLoop=1;jettySize=auto;html=1;entryX=1;entryY=0.5;entryDx=0;entryDy=0;" edge="1" parent="1" source="4CBDETchsE6YsyWJ3VwL-14" target="4CBDETchsE6YsyWJ3VwL-9">
          <mxGeometry relative="1" as="geometry" />
        </mxCell>
        <mxCell id="4CBDETchsE6YsyWJ3VwL-14" value="ator" style="rounded=0;whiteSpace=wrap;html=1;" vertex="1" parent="1">
          <mxGeometry x="700" y="265" width="120" height="60" as="geometry" />
        </mxCell>
        <mxCell id="4CBDETchsE6YsyWJ3VwL-15" value="nome" style="ellipse;whiteSpace=wrap;html=1;" vertex="1" parent="1">
          <mxGeometry x="870" y="200" width="100" height="50" as="geometry" />
        </mxCell>
        <mxCell id="4CBDETchsE6YsyWJ3VwL-16" value="nacionalidade" style="ellipse;whiteSpace=wrap;html=1;" vertex="1" parent="1">
          <mxGeometry x="870" y="270" width="100" height="50" as="geometry" />
        </mxCell>
        <mxCell id="4CBDETchsE6YsyWJ3VwL-17" value="dt_nascimento" style="ellipse;whiteSpace=wrap;html=1;" vertex="1" parent="1">
          <mxGeometry x="870" y="340" width="100" height="50" as="geometry" />
        </mxCell>
        <mxCell id="4CBDETchsE6YsyWJ3VwL-18" value="preço" style="ellipse;whiteSpace=wrap;html=1;" vertex="1" parent="1">
          <mxGeometry x="190" y="410" width="100" height="50" as="geometry" />
        </mxCell>
        <mxCell id="4CBDETchsE6YsyWJ3VwL-25" style="edgeStyle=orthogonalEdgeStyle;rounded=0;orthogonalLoop=1;jettySize=auto;html=1;" edge="1" parent="1" source="4CBDETchsE6YsyWJ3VwL-29" target="4CBDETchsE6YsyWJ3VwL-22">
          <mxGeometry relative="1" as="geometry">
            <mxPoint x="430" y="550" as="sourcePoint" />
            <mxPoint x="350" y="620" as="targetPoint" />
          </mxGeometry>
        </mxCell>
        <mxCell id="4CBDETchsE6YsyWJ3VwL-26" style="edgeStyle=orthogonalEdgeStyle;rounded=0;orthogonalLoop=1;jettySize=auto;html=1;entryX=0.5;entryY=0;entryDx=0;entryDy=0;" edge="1" parent="1" source="4CBDETchsE6YsyWJ3VwL-29" target="4CBDETchsE6YsyWJ3VwL-23">
          <mxGeometry relative="1" as="geometry">
            <mxPoint x="470" y="590" as="sourcePoint" />
          </mxGeometry>
        </mxCell>
        <mxCell id="4CBDETchsE6YsyWJ3VwL-28" style="edgeStyle=orthogonalEdgeStyle;rounded=0;orthogonalLoop=1;jettySize=auto;html=1;entryX=0.5;entryY=0;entryDx=0;entryDy=0;" edge="1" parent="1" source="4CBDETchsE6YsyWJ3VwL-29" target="4CBDETchsE6YsyWJ3VwL-24">
          <mxGeometry relative="1" as="geometry">
            <mxPoint x="510" y="550" as="sourcePoint" />
          </mxGeometry>
        </mxCell>
        <mxCell id="4CBDETchsE6YsyWJ3VwL-22" value="nome" style="ellipse;whiteSpace=wrap;html=1;" vertex="1" parent="1">
          <mxGeometry x="300" y="620" width="100" height="50" as="geometry" />
        </mxCell>
        <mxCell id="4CBDETchsE6YsyWJ3VwL-23" value="nacionalidade" style="ellipse;whiteSpace=wrap;html=1;" vertex="1" parent="1">
          <mxGeometry x="420" y="620" width="100" height="50" as="geometry" />
        </mxCell>
        <mxCell id="4CBDETchsE6YsyWJ3VwL-24" value="dt_nascimento" style="ellipse;whiteSpace=wrap;html=1;" vertex="1" parent="1">
          <mxGeometry x="540" y="620" width="100" height="50" as="geometry" />
        </mxCell>
        <mxCell id="4CBDETchsE6YsyWJ3VwL-33" value="n" style="edgeStyle=orthogonalEdgeStyle;rounded=0;orthogonalLoop=1;jettySize=auto;html=1;" edge="1" parent="1" source="4CBDETchsE6YsyWJ3VwL-29" target="4CBDETchsE6YsyWJ3VwL-30">
          <mxGeometry relative="1" as="geometry" />
        </mxCell>
        <mxCell id="4CBDETchsE6YsyWJ3VwL-29" value="ator" style="rounded=0;whiteSpace=wrap;html=1;" vertex="1" parent="1">
          <mxGeometry x="410" y="510" width="120" height="60" as="geometry" />
        </mxCell>
        <mxCell id="4CBDETchsE6YsyWJ3VwL-34" value="n" style="edgeStyle=orthogonalEdgeStyle;rounded=0;orthogonalLoop=1;jettySize=auto;html=1;" edge="1" parent="1" source="4CBDETchsE6YsyWJ3VwL-30" target="4CBDETchsE6YsyWJ3VwL-4">
          <mxGeometry relative="1" as="geometry" />
        </mxCell>
        <mxCell id="4CBDETchsE6YsyWJ3VwL-30" value="faz" style="rhombus;whiteSpace=wrap;html=1;" vertex="1" parent="1">
          <mxGeometry x="430" y="370" width="80" height="80" as="geometry" />
        </mxCell>
      </root>
    </mxGraphModel>
  </diagram>
</mxfile>
